<svg xmlns="http://www.w3.org/2000/svg" xmlns:xlink="http://www.w3.org/1999/xlink" width="150" zoomAndPan="magnify" viewBox="0 0 112.5 112.499997" height="150" preserveAspectRatio="xMidYMid meet" version="1.0"><defs><clipPath id="374fb3a86e"><path d="M 0 0 L 112.003906 0 L 112.003906 112.003906 L 0 112.003906 Z M 0 0 " clip-rule="nonzero"/></clipPath><clipPath id="6947838193"><path d="M 4.640625 21 L 108 21 L 108 112.003906 L 4.640625 112.003906 Z M 4.640625 21 " clip-rule="nonzero"/></clipPath></defs><g clip-path="url(#374fb3a86e)"><path fill="#ffffff" d="M 0 0 L 112.5 0 L 112.5 592.5 L 0 592.5 Z M 0 0 " fill-opacity="1" fill-rule="nonzero"/><path fill="#ffffff" d="M 0 0 L 112.5 0 L 112.5 112.5 L 0 112.5 Z M 0 0 " fill-opacity="1" fill-rule="nonzero"/><path fill="#ffffff" d="M 0 0 L 112.5 0 L 112.5 112.5 L 0 112.5 Z M 0 0 " fill-opacity="1" fill-rule="nonzero"/></g><path fill="#00bf63" d="M 58.066406 91.5 C 58.066406 91.730469 58.023438 91.949219 57.933594 92.164062 C 57.847656 92.375 57.71875 92.566406 57.554688 92.726562 C 57.394531 92.890625 57.203125 93.015625 56.992188 93.105469 C 56.777344 93.191406 56.554688 93.238281 56.324219 93.238281 C 56.09375 93.238281 55.871094 93.191406 55.65625 93.105469 C 55.441406 93.015625 55.253906 92.890625 55.089844 92.726562 C 54.925781 92.566406 54.800781 92.375 54.710938 92.164062 C 54.625 91.949219 54.578125 91.730469 54.578125 91.5 C 54.578125 91.269531 54.625 91.046875 54.710938 90.832031 C 54.800781 90.621094 54.925781 90.429688 55.089844 90.269531 C 55.253906 90.105469 55.441406 89.980469 55.65625 89.890625 C 55.871094 89.804688 56.09375 89.757812 56.324219 89.757812 C 56.554688 89.757812 56.777344 89.804688 56.992188 89.890625 C 57.203125 89.980469 57.394531 90.105469 57.554688 90.269531 C 57.71875 90.429688 57.847656 90.621094 57.933594 90.832031 C 58.023438 91.046875 58.066406 91.269531 58.066406 91.5 Z M 58.066406 91.5 " fill-opacity="1" fill-rule="nonzero"/><path fill="#00bf63" d="M 88.113281 3.210938 L 95.222656 3.210938 L 57.800781 45.082031 L 42.777344 34.644531 C 41.972656 34.109375 41.03125 34.246094 40.496094 35.046875 L 23.460938 57.921875 C 22.925781 58.726562 23.058594 59.660156 23.863281 60.328125 C 24.132812 60.597656 24.535156 60.597656 24.9375 60.597656 C 25.472656 60.597656 26.007812 60.328125 26.277344 59.929688 L 42.375 38.257812 L 57.128906 48.691406 C 57.800781 49.226562 58.738281 49.09375 59.410156 48.425781 L 97.636719 5.484375 L 97.636719 11.773438 C 97.636719 12.707031 98.308594 13.375 99.246094 13.375 C 100.183594 13.375 100.855469 12.574219 100.855469 11.773438 L 100.855469 1.605469 C 100.855469 0.667969 100.050781 0 99.246094 0 L 88.113281 0 C 87.175781 0 86.503906 0.800781 86.503906 1.605469 C 86.503906 2.40625 87.175781 3.210938 88.113281 3.210938 Z M 88.113281 3.210938 " fill-opacity="1" fill-rule="nonzero"/><g clip-path="url(#6947838193)"><path fill="#00bf63" d="M 107.695312 25.550781 C 107.695312 23.007812 105.683594 21.136719 103.136719 21.136719 L 89.589844 21.136719 C 88.648438 21.136719 87.980469 21.9375 87.980469 22.742188 C 87.980469 23.542969 88.785156 24.347656 89.589844 24.347656 L 103.269531 24.347656 C 103.941406 24.347656 104.34375 24.882812 104.34375 25.417969 L 104.34375 83.605469 L 98.441406 83.605469 L 98.441406 34.78125 C 98.441406 33.84375 97.636719 33.175781 96.832031 33.175781 L 87.175781 33.175781 C 86.234375 33.175781 85.566406 33.976562 85.566406 34.78125 L 85.566406 83.738281 L 78.320312 83.738281 L 78.320312 65.011719 C 78.320312 64.074219 77.515625 63.40625 76.710938 63.40625 L 66.785156 63.40625 C 65.847656 63.40625 65.175781 64.074219 65.175781 65.011719 L 65.175781 83.738281 L 57.933594 83.738281 L 57.933594 59.394531 C 57.933594 58.457031 57.128906 57.789062 56.324219 57.789062 L 46.664062 57.789062 C 45.726562 57.789062 45.054688 58.589844 45.054688 59.394531 L 45.054688 83.738281 L 37.8125 83.738281 L 37.8125 73.304688 C 37.8125 72.371094 37.007812 71.699219 36.203125 71.699219 L 26.546875 71.699219 C 25.605469 71.699219 24.9375 72.503906 24.9375 73.304688 L 24.9375 83.738281 L 8.304688 83.738281 L 8.304688 76.648438 L 17.023438 76.648438 C 17.960938 76.648438 18.632812 75.847656 18.632812 75.042969 C 18.632812 74.242188 17.828125 73.4375 17.023438 73.4375 L 8.304688 73.4375 L 8.304688 66.75 L 17.023438 66.75 C 17.960938 66.75 18.632812 65.949219 18.632812 65.144531 C 18.632812 64.34375 17.828125 63.539062 17.023438 63.539062 L 8.304688 63.539062 L 8.304688 56.851562 L 17.023438 56.851562 C 17.960938 56.851562 18.632812 56.050781 18.632812 55.246094 C 18.632812 54.445312 17.828125 53.640625 17.023438 53.640625 L 8.304688 53.640625 L 8.304688 46.953125 L 17.023438 46.953125 C 17.960938 46.953125 18.632812 46.152344 18.632812 45.347656 C 18.632812 44.546875 17.828125 43.742188 17.023438 43.742188 L 8.304688 43.742188 L 8.304688 37.054688 L 17.023438 37.054688 C 17.960938 37.054688 18.632812 36.25 18.632812 35.449219 C 18.632812 34.644531 17.828125 33.84375 17.023438 33.84375 L 8.304688 33.84375 L 8.304688 26.21875 C 8.304688 25.550781 8.839844 25.148438 9.511719 25.148438 L 70.808594 25.148438 C 71.75 25.148438 72.417969 24.347656 72.417969 23.542969 C 72.417969 22.742188 71.613281 21.9375 70.808594 21.9375 L 9.511719 21.9375 C 6.960938 21.9375 4.949219 23.945312 4.949219 26.351562 L 4.949219 94.039062 C 5.085938 96.847656 7.230469 98.988281 10.046875 99.257812 L 43.179688 99.257812 C 43.179688 101.53125 43.179688 105.277344 43.042969 106.480469 C 42.777344 107.953125 41.570312 108.886719 40.363281 109.289062 L 35.265625 109.289062 C 34.324219 109.289062 33.65625 110.09375 33.65625 110.894531 C 33.65625 111.699219 34.460938 112.5 35.265625 112.5 L 77.515625 112.5 C 78.457031 112.5 79.125 111.699219 79.125 110.894531 C 79.125 110.09375 78.320312 109.289062 77.515625 109.289062 L 72.417969 109.289062 C 71.078125 109.023438 69.871094 108.085938 69.738281 106.480469 C 69.601562 105.144531 69.601562 101.398438 69.601562 99.257812 L 103.539062 99.257812 C 106.222656 99.257812 107.832031 96.714844 107.832031 94.171875 Z M 88.785156 36.519531 L 95.222656 36.519531 L 95.222656 83.738281 L 88.785156 83.738281 Z M 68.53125 66.75 L 74.835938 66.75 L 74.835938 83.875 L 68.53125 83.875 Z M 48.140625 61 L 54.445312 61 L 54.445312 83.738281 L 48.140625 83.738281 Z M 27.886719 75.042969 L 34.324219 75.042969 L 34.324219 83.875 L 27.886719 83.875 Z M 45.59375 109.289062 C 45.859375 108.753906 46.128906 108.085938 46.261719 107.148438 C 46.53125 105.144531 46.53125 99.792969 46.53125 99.257812 L 66.117188 99.390625 C 66.117188 99.925781 66.117188 105.144531 66.382812 107.148438 C 66.519531 108.085938 66.652344 108.753906 66.921875 109.289062 Z M 104.34375 94.171875 C 104.34375 94.976562 103.941406 95.914062 103.40625 95.914062 L 9.914062 95.914062 C 8.972656 95.777344 8.304688 94.976562 8.167969 94.039062 L 8.167969 87.082031 L 104.34375 87.082031 Z M 104.34375 94.171875 " fill-opacity="1" fill-rule="nonzero"/></g></svg>