<svg xmlns="http://www.w3.org/2000/svg" xmlns:xlink="http://www.w3.org/1999/xlink" width="150" zoomAndPan="magnify" viewBox="0 0 112.5 112.499997" height="150" preserveAspectRatio="xMidYMid meet" version="1.0"><defs><clipPath id="074ddabe3d"><path d="M 0 0 L 112.003906 0 L 112.003906 112.003906 L 0 112.003906 Z M 0 0 " clip-rule="nonzero"/></clipPath><clipPath id="f86e3d4a67"><path d="M 36 4.007812 L 76 4.007812 L 76 42 L 36 42 Z M 36 4.007812 " clip-rule="nonzero"/></clipPath><clipPath id="cbdb061e13"><path d="M 90 35 L 112.003906 35 L 112.003906 61 L 90 61 Z M 90 35 " clip-rule="nonzero"/></clipPath><clipPath id="5def4b5553"><path d="M 25.363281 73.148438 L 41.460938 73.148438 L 41.460938 108.226562 L 25.363281 108.226562 Z M 25.363281 73.148438 " clip-rule="nonzero"/></clipPath></defs><g clip-path="url(#074ddabe3d)"><path fill="#ffffff" d="M 0 0 L 112.5 0 L 112.5 112.5 L 0 112.5 Z M 0 0 " fill-opacity="1" fill-rule="nonzero"/><path fill="#ffffff" d="M 0 0 L 112.5 0 L 112.5 112.5 L 0 112.5 Z M 0 0 " fill-opacity="1" fill-rule="nonzero"/></g><g clip-path="url(#f86e3d4a67)"><path fill="#00bf63" d="M 56.25 30.964844 C 56.480469 30.964844 56.714844 31.035156 56.910156 31.179688 L 65.589844 37.46875 L 62.273438 27.292969 C 62.121094 26.828125 62.289062 26.324219 62.683594 26.039062 L 71.359375 19.746094 L 60.632812 19.746094 C 60.148438 19.746094 59.714844 19.433594 59.566406 18.972656 L 56.25 8.792969 L 52.933594 18.972656 C 52.785156 19.433594 52.351562 19.746094 51.867188 19.746094 L 41.140625 19.746094 L 49.816406 26.039062 C 50.210938 26.324219 50.378906 26.828125 50.226562 27.292969 L 46.910156 37.46875 L 55.589844 31.179688 C 55.785156 31.035156 56.019531 30.964844 56.25 30.964844 Z M 67.726562 41.527344 C 67.496094 41.527344 67.261719 41.457031 67.066406 41.3125 L 56.25 33.472656 L 45.433594 41.3125 C 45.039062 41.601562 44.507812 41.601562 44.113281 41.3125 C 43.71875 41.027344 43.554688 40.523438 43.703125 40.058594 L 47.835938 27.375 L 37.019531 19.535156 C 36.625 19.246094 36.460938 18.742188 36.613281 18.277344 C 36.761719 17.816406 37.195312 17.503906 37.679688 17.503906 L 51.050781 17.503906 L 55.179688 4.816406 C 55.332031 4.355469 55.761719 4.042969 56.25 4.042969 C 56.738281 4.042969 57.167969 4.355469 57.320312 4.816406 L 61.449219 17.503906 L 74.820312 17.503906 C 75.304688 17.503906 75.738281 17.816406 75.886719 18.277344 C 76.039062 18.742188 75.875 19.246094 75.480469 19.535156 L 64.664062 27.375 L 68.796875 40.058594 C 68.945312 40.523438 68.78125 41.027344 68.386719 41.3125 C 68.191406 41.457031 67.957031 41.527344 67.726562 41.527344 " fill-opacity="1" fill-rule="nonzero"/></g><path fill="#00bf63" d="M 41.859375 51.273438 C 41.628906 51.273438 41.394531 51.203125 41.199219 51.058594 L 32.359375 44.652344 L 23.519531 51.058594 C 23.125 51.34375 22.589844 51.34375 22.195312 51.058594 C 21.800781 50.773438 21.636719 50.265625 21.789062 49.804688 L 25.164062 39.4375 L 16.324219 33.027344 C 15.929688 32.742188 15.765625 32.234375 15.917969 31.773438 C 16.066406 31.3125 16.5 30.996094 16.984375 30.996094 L 27.914062 30.996094 L 31.289062 20.628906 C 31.441406 20.167969 31.871094 19.855469 32.359375 19.855469 C 32.84375 19.855469 33.277344 20.167969 33.425781 20.628906 L 36.804688 30.996094 L 42.40625 30.996094 C 43.027344 30.996094 43.53125 31.5 43.53125 32.121094 C 43.53125 32.738281 43.027344 33.242188 42.40625 33.242188 L 35.988281 33.242188 C 35.5 33.242188 35.070312 32.929688 34.917969 32.464844 L 32.359375 24.605469 L 29.796875 32.464844 C 29.648438 32.929688 29.214844 33.242188 28.730469 33.242188 L 20.445312 33.242188 L 27.148438 38.101562 C 27.542969 38.386719 27.707031 38.890625 27.554688 39.355469 L 24.996094 47.214844 L 31.699219 42.355469 C 32.089844 42.070312 32.625 42.070312 33.019531 42.355469 L 39.722656 47.214844 L 37.160156 39.355469 C 37.011719 38.890625 37.175781 38.386719 37.570312 38.101562 L 40.097656 36.265625 C 40.601562 35.902344 41.304688 36.011719 41.667969 36.515625 C 42.035156 37.015625 41.921875 37.71875 41.421875 38.082031 L 39.550781 39.4375 L 42.929688 49.804688 C 43.078125 50.265625 42.914062 50.773438 42.519531 51.058594 C 42.324219 51.203125 42.089844 51.273438 41.859375 51.273438 " fill-opacity="1" fill-rule="nonzero"/><path fill="#00bf63" d="M 20.480469 60.121094 C 20.25 60.121094 20.015625 60.050781 19.820312 59.90625 L 13.121094 55.050781 L 6.425781 59.90625 C 6.03125 60.191406 5.5 60.191406 5.105469 59.90625 C 4.710938 59.621094 4.546875 59.113281 4.695312 58.652344 L 7.253906 50.796875 L 0.558594 45.945312 C 0.164062 45.65625 -0.00390625 45.152344 0.148438 44.6875 C 0.300781 44.226562 0.730469 43.914062 1.21875 43.914062 L 9.496094 43.914062 L 12.054688 36.058594 C 12.203125 35.597656 12.636719 35.285156 13.121094 35.285156 C 13.609375 35.285156 14.042969 35.597656 14.191406 36.058594 L 16.75 43.914062 L 19.457031 43.914062 C 20.078125 43.914062 20.582031 44.417969 20.582031 45.035156 C 20.582031 45.65625 20.078125 46.15625 19.457031 46.15625 L 15.933594 46.15625 C 15.445312 46.15625 15.015625 45.84375 14.863281 45.382812 L 13.121094 40.035156 L 11.382812 45.382812 C 11.230469 45.84375 10.800781 46.15625 10.3125 46.15625 L 4.675781 46.15625 L 9.238281 49.460938 C 9.628906 49.746094 9.796875 50.253906 9.644531 50.714844 L 7.902344 56.0625 L 12.460938 52.757812 C 12.855469 52.472656 13.390625 52.472656 13.785156 52.757812 L 18.34375 56.0625 L 16.601562 50.714844 C 16.410156 50.125 16.730469 49.496094 17.324219 49.304688 C 17.914062 49.113281 18.546875 49.433594 18.738281 50.023438 L 21.550781 58.652344 C 21.699219 59.113281 21.535156 59.621094 21.140625 59.90625 C 20.945312 60.050781 20.710938 60.121094 20.480469 60.121094 " fill-opacity="1" fill-rule="nonzero"/><path fill="#00bf63" d="M 70.640625 51.273438 C 70.410156 51.273438 70.175781 51.203125 69.980469 51.058594 C 69.585938 50.773438 69.421875 50.265625 69.570312 49.804688 L 72.949219 39.4375 L 71.078125 38.082031 C 70.578125 37.71875 70.464844 37.015625 70.832031 36.515625 C 71.195312 36.011719 71.898438 35.902344 72.402344 36.265625 L 74.929688 38.101562 C 75.324219 38.386719 75.488281 38.890625 75.339844 39.355469 L 72.777344 47.214844 L 79.480469 42.355469 C 79.875 42.070312 80.410156 42.070312 80.800781 42.355469 L 87.503906 47.214844 L 84.945312 39.355469 C 84.792969 38.890625 84.957031 38.386719 85.351562 38.101562 L 92.054688 33.242188 L 83.769531 33.242188 C 83.285156 33.242188 82.851562 32.929688 82.703125 32.464844 L 80.140625 24.605469 L 77.582031 32.464844 C 77.429688 32.929688 77 33.242188 76.511719 33.242188 L 70.09375 33.242188 C 69.472656 33.242188 68.96875 32.738281 68.96875 32.121094 C 68.96875 31.5 69.472656 30.996094 70.09375 30.996094 L 75.695312 30.996094 L 79.074219 20.628906 C 79.222656 20.167969 79.65625 19.855469 80.140625 19.855469 C 80.628906 19.855469 81.058594 20.167969 81.210938 20.628906 L 84.585938 30.996094 L 95.515625 30.996094 C 96 30.996094 96.433594 31.3125 96.582031 31.773438 C 96.734375 32.234375 96.570312 32.742188 96.175781 33.027344 L 87.335938 39.4375 L 90.710938 49.804688 C 90.863281 50.265625 90.699219 50.773438 90.304688 51.058594 C 89.910156 51.34375 89.375 51.34375 88.980469 51.058594 L 80.140625 44.652344 L 71.300781 51.058594 C 71.105469 51.203125 70.871094 51.273438 70.640625 51.273438 " fill-opacity="1" fill-rule="nonzero"/><g clip-path="url(#cbdb061e13)"><path fill="#00bf63" d="M 106.734375 60.121094 C 106.503906 60.121094 106.273438 60.050781 106.074219 59.90625 L 99.378906 55.050781 L 92.679688 59.90625 C 92.285156 60.191406 91.753906 60.191406 91.359375 59.90625 C 90.964844 59.621094 90.800781 59.113281 90.949219 58.652344 L 93.761719 50.023438 C 93.953125 49.433594 94.585938 49.109375 95.175781 49.304688 C 95.769531 49.496094 96.089844 50.125 95.898438 50.714844 L 94.15625 56.0625 L 98.714844 52.757812 C 99.109375 52.472656 99.644531 52.472656 100.039062 52.757812 L 104.597656 56.0625 L 102.855469 50.714844 C 102.703125 50.253906 102.871094 49.746094 103.261719 49.460938 L 107.824219 46.15625 L 102.1875 46.15625 C 101.699219 46.15625 101.269531 45.84375 101.117188 45.382812 L 99.378906 40.035156 L 97.636719 45.382812 C 97.484375 45.84375 97.054688 46.15625 96.566406 46.15625 L 93.042969 46.15625 C 92.421875 46.15625 91.917969 45.65625 91.917969 45.035156 C 91.917969 44.417969 92.421875 43.914062 93.042969 43.914062 L 95.75 43.914062 L 98.308594 36.058594 C 98.457031 35.597656 98.890625 35.285156 99.378906 35.285156 C 99.863281 35.285156 100.296875 35.597656 100.445312 36.058594 L 103.003906 43.914062 L 111.28125 43.914062 C 111.769531 43.914062 112.199219 44.226562 112.351562 44.6875 C 112.503906 45.152344 112.335938 45.65625 111.941406 45.945312 L 105.246094 50.796875 L 107.804688 58.652344 C 107.953125 59.113281 107.789062 59.621094 107.394531 59.90625 C 107.199219 60.050781 106.96875 60.121094 106.734375 60.121094 " fill-opacity="1" fill-rule="nonzero"/></g><path fill="#00bf63" d="M 41.277344 101.722656 C 42.347656 101.875 43.355469 102.382812 44.113281 103.167969 L 44.464844 103.53125 C 45.226562 104.316406 46.289062 104.769531 47.386719 104.769531 L 74.027344 104.769531 C 75.691406 104.769531 77.042969 103.417969 77.042969 101.761719 C 77.042969 100.101562 75.691406 98.75 74.027344 98.75 C 73.40625 98.75 72.902344 98.246094 72.902344 97.628906 C 72.902344 97.007812 73.40625 96.507812 74.027344 96.507812 L 76.082031 96.507812 C 77.742188 96.507812 79.097656 95.15625 79.097656 93.496094 C 79.097656 91.839844 77.742188 90.488281 76.082031 90.488281 C 75.460938 90.488281 74.957031 89.984375 74.957031 89.367188 C 74.957031 88.746094 75.460938 88.246094 76.082031 88.246094 L 76.878906 88.246094 C 78.53125 88.246094 79.933594 86.960938 80.007812 85.382812 C 80.050781 84.550781 79.753906 83.757812 79.179688 83.160156 C 78.605469 82.558594 77.828125 82.226562 76.996094 82.226562 C 76.375 82.226562 75.871094 81.722656 75.871094 81.105469 C 75.871094 80.484375 76.375 79.984375 76.996094 79.984375 L 77.828125 79.984375 C 79.480469 79.984375 80.886719 78.699219 80.960938 77.121094 C 81 76.289062 80.707031 75.496094 80.128906 74.894531 C 79.554688 74.296875 78.78125 73.964844 77.945312 73.964844 L 59.835938 73.964844 C 59.507812 73.964844 59.191406 73.820312 58.980469 73.570312 C 58.765625 73.320312 58.671875 72.988281 58.726562 72.664062 L 59.925781 65.226562 C 60.28125 63.035156 60.355469 60.800781 60.148438 58.589844 L 59.945312 56.425781 C 59.6875 53.625 57.625 51.34375 54.890625 50.773438 L 54.011719 56.371094 C 53.355469 60.558594 51.832031 64.472656 49.488281 68.007812 L 44.246094 75.898438 C 43.546875 76.957031 42.480469 77.683594 41.277344 77.964844 Z M 74.027344 107.011719 L 47.386719 107.011719 C 45.683594 107.011719 44.03125 106.3125 42.847656 105.089844 L 42.496094 104.726562 C 41.996094 104.210938 41.296875 103.914062 40.578125 103.914062 L 40.152344 103.914062 C 39.53125 103.914062 39.027344 103.410156 39.027344 102.792969 L 39.027344 76.972656 C 39.027344 76.355469 39.53125 75.851562 40.152344 75.851562 C 41.046875 75.851562 41.878906 75.40625 42.375 74.660156 L 47.613281 66.765625 C 49.777344 63.503906 51.183594 59.890625 51.792969 56.023438 L 52.71875 50.117188 C 52.867188 49.167969 53.675781 48.480469 54.636719 48.480469 C 54.738281 48.480469 54.839844 48.488281 54.941406 48.503906 C 58.839844 49.125 61.820312 52.296875 62.1875 56.214844 L 62.386719 58.382812 C 62.613281 60.78125 62.53125 63.203125 62.148438 65.585938 L 61.15625 71.71875 L 77.945312 71.71875 C 79.402344 71.71875 80.753906 72.296875 81.757812 73.347656 C 82.757812 74.394531 83.273438 75.773438 83.207031 77.226562 C 83.121094 79.027344 82.117188 80.574219 80.648438 81.453125 C 80.703125 81.503906 80.753906 81.554688 80.808594 81.609375 C 81.808594 82.660156 82.324219 84.035156 82.253906 85.488281 C 82.171875 87.277344 81.175781 88.824219 79.71875 89.703125 C 80.71875 90.660156 81.34375 92.007812 81.34375 93.496094 C 81.34375 95.699219 79.980469 97.589844 78.046875 98.371094 C 78.824219 99.285156 79.292969 100.46875 79.292969 101.757812 C 79.292969 104.65625 76.929688 107.011719 74.027344 107.011719 " fill-opacity="1" fill-rule="nonzero"/><g clip-path="url(#5def4b5553)"><path fill="#00bf63" d="M 27.789062 105.984375 L 39.027344 105.984375 L 39.027344 75.445312 L 27.789062 75.445312 Z M 39.191406 108.226562 L 27.625 108.226562 C 26.476562 108.226562 25.539062 107.292969 25.539062 106.144531 L 25.539062 75.285156 C 25.539062 74.136719 26.476562 73.203125 27.625 73.203125 L 39.191406 73.203125 C 40.339844 73.203125 41.277344 74.136719 41.277344 75.285156 L 41.277344 106.144531 C 41.277344 107.292969 40.339844 108.226562 39.191406 108.226562 " fill-opacity="1" fill-rule="nonzero"/></g><path fill="#00bf63" d="M 76.996094 82.226562 L 73.730469 82.226562 C 73.109375 82.226562 72.605469 81.722656 72.605469 81.105469 C 72.605469 80.484375 73.109375 79.984375 73.730469 79.984375 L 76.996094 79.984375 C 77.617188 79.984375 78.121094 80.484375 78.121094 81.105469 C 78.121094 81.722656 77.617188 82.226562 76.996094 82.226562 " fill-opacity="1" fill-rule="nonzero"/><path fill="#00bf63" d="M 76.082031 90.488281 L 73.03125 90.488281 C 72.410156 90.488281 71.910156 89.984375 71.910156 89.367188 C 71.910156 88.746094 72.410156 88.246094 73.03125 88.246094 L 76.082031 88.246094 C 76.703125 88.246094 77.203125 88.746094 77.203125 89.367188 C 77.203125 89.984375 76.703125 90.488281 76.082031 90.488281 " fill-opacity="1" fill-rule="nonzero"/><path fill="#00bf63" d="M 74.027344 98.75 L 71.988281 98.75 C 71.367188 98.75 70.863281 98.246094 70.863281 97.628906 C 70.863281 97.007812 71.367188 96.507812 71.988281 96.507812 L 74.027344 96.507812 C 74.648438 96.507812 75.152344 97.007812 75.152344 97.628906 C 75.152344 98.246094 74.648438 98.75 74.027344 98.75 " fill-opacity="1" fill-rule="nonzero"/></svg>