<svg xmlns="http://www.w3.org/2000/svg" xmlns:xlink="http://www.w3.org/1999/xlink" width="150" zoomAndPan="magnify" viewBox="0 0 112.5 112.499997" height="150" preserveAspectRatio="xMidYMid meet" version="1.0"><defs><clipPath id="44b0c58249"><path d="M 0 0 L 112.003906 0 L 112.003906 112.003906 L 0 112.003906 Z M 0 0 " clip-rule="nonzero"/></clipPath><clipPath id="bd98850c4c"><path d="M 0 0 L 112 0 L 112 111.75 L 0 111.75 Z M 0 0 " clip-rule="nonzero"/></clipPath></defs><g clip-path="url(#44b0c58249)"><path fill="#ffffff" d="M 0 0 L 112.5 0 L 112.5 112.5 L 0 112.5 Z M 0 0 " fill-opacity="1" fill-rule="nonzero"/><path fill="#ffffff" d="M 0 0 L 112.5 0 L 112.5 112.5 L 0 112.5 Z M 0 0 " fill-opacity="1" fill-rule="nonzero"/></g><g clip-path="url(#bd98850c4c)"><path fill="#00bf63" d="M 56.238281 20.515625 C 36.640625 20.515625 20.695312 36.515625 20.695312 56.179688 C 20.695312 75.84375 36.640625 91.839844 56.238281 91.839844 C 75.835938 91.839844 91.78125 75.84375 91.78125 56.179688 C 91.78125 36.515625 75.835938 20.515625 56.238281 20.515625 Z M 56.238281 87.5 C 39.027344 87.5 25.023438 73.449219 25.023438 56.179688 C 25.023438 38.910156 39.027344 24.855469 56.238281 24.855469 C 73.453125 24.855469 87.457031 38.90625 87.457031 56.179688 C 87.457031 73.449219 73.453125 87.5 56.238281 87.5 Z M 67.09375 64.109375 C 67.09375 68.90625 63.375 72.921875 58.445312 73.859375 L 58.503906 76.359375 C 58.535156 77.558594 57.589844 78.550781 56.394531 78.582031 C 56.375 78.582031 56.359375 78.582031 56.339844 78.582031 C 55.171875 78.582031 54.207031 77.644531 54.179688 76.464844 L 54.117188 73.894531 C 51.160156 73.386719 49.28125 71.828125 47.484375 70.128906 C 46.613281 69.304688 46.574219 67.933594 47.394531 67.0625 C 48.214844 66.1875 49.582031 66.148438 50.453125 66.972656 C 52.503906 68.914062 53.761719 69.726562 56.238281 69.726562 C 59.839844 69.726562 62.765625 67.207031 62.765625 64.109375 C 62.765625 61.011719 59.839844 58.492188 56.238281 58.492188 C 50.253906 58.492188 45.382812 54.027344 45.382812 48.535156 C 45.382812 43.734375 49.105469 39.71875 54.039062 38.78125 L 53.972656 36 C 53.945312 34.800781 54.890625 33.804688 56.085938 33.777344 C 57.277344 33.746094 58.269531 34.695312 58.296875 35.894531 L 58.367188 38.769531 C 60.414062 39.140625 62.300781 40.046875 63.824219 41.410156 C 64.714844 42.207031 64.792969 43.582031 64 44.472656 C 63.203125 45.367188 61.835938 45.445312 60.945312 44.648438 C 59.699219 43.53125 58.027344 42.917969 56.238281 42.917969 C 52.640625 42.917969 49.710938 45.4375 49.710938 48.535156 C 49.710938 51.632812 52.640625 54.152344 56.238281 54.152344 C 62.222656 54.152344 67.09375 58.617188 67.09375 64.109375 Z M 110.253906 68.453125 C 107.957031 78.679688 102.820312 88.019531 95.394531 95.46875 C 84.9375 105.960938 71.03125 111.742188 56.238281 111.742188 C 42.238281 111.742188 29.03125 106.558594 18.789062 97.105469 L 18.789062 103.535156 C 18.789062 104.734375 17.820312 105.707031 16.625 105.707031 C 15.429688 105.707031 14.464844 104.734375 14.464844 103.535156 L 14.464844 91.601562 C 14.464844 90.40625 15.429688 89.433594 16.625 89.433594 L 28.515625 89.433594 C 29.710938 89.433594 30.679688 90.40625 30.679688 91.601562 C 30.679688 92.800781 29.710938 93.773438 28.515625 93.773438 L 21.570312 93.773438 C 31.328125 102.839844 43.785156 107.375 56.238281 107.378906 C 69.3125 107.378906 82.382812 102.386719 92.335938 92.398438 C 106.125 78.5625 110.839844 58.433594 104.640625 39.867188 C 104.261719 38.730469 104.871094 37.5 106.003906 37.117188 C 107.136719 36.738281 108.363281 37.351562 108.742188 38.488281 C 111.964844 48.140625 112.488281 58.503906 110.253906 68.453125 Z M 7.839844 72.492188 C 8.21875 73.628906 7.605469 74.859375 6.472656 75.238281 C 6.246094 75.316406 6.015625 75.351562 5.785156 75.351562 C 4.882812 75.351562 4.039062 74.777344 3.734375 73.871094 C 0.511719 64.214844 -0.0117188 53.855469 2.226562 43.90625 C 4.523438 33.679688 9.660156 24.335938 17.082031 16.890625 C 27.539062 6.394531 41.449219 0.617188 56.238281 0.617188 C 70.316406 0.617188 83.589844 5.855469 93.855469 15.40625 L 93.855469 8.632812 C 93.855469 7.433594 94.824219 6.460938 96.019531 6.460938 C 97.214844 6.460938 98.183594 7.433594 98.183594 8.632812 L 98.183594 20.5625 C 98.183594 21.761719 97.214844 22.734375 96.019531 22.734375 L 84.128906 22.734375 C 82.933594 22.734375 81.964844 21.761719 81.964844 20.5625 C 81.964844 19.363281 82.933594 18.390625 84.128906 18.390625 L 90.703125 18.390625 C 70.695312 0.00390625 39.507812 0.523438 20.140625 19.960938 C 6.351562 33.792969 1.636719 53.921875 7.839844 72.492188 Z M 7.839844 72.492188 " fill-opacity="1" fill-rule="nonzero"/></g></svg>