<svg xmlns="http://www.w3.org/2000/svg" xmlns:xlink="http://www.w3.org/1999/xlink" width="150" zoomAndPan="magnify" viewBox="0 0 112.5 112.499997" height="150" preserveAspectRatio="xMidYMid meet" version="1.0"><defs><clipPath id="1a24dcb7b0"><path d="M 0 0 L 112.003906 0 L 112.003906 112.003906 L 0 112.003906 Z M 0 0 " clip-rule="nonzero"/></clipPath><clipPath id="91b049212d"><path d="M 54 20.039062 L 112.003906 20.039062 L 112.003906 79 L 54 79 Z M 54 20.039062 " clip-rule="nonzero"/></clipPath><clipPath id="8699c5ee74"><path d="M 0 34 L 58 34 L 58 92.789062 L 0 92.789062 Z M 0 34 " clip-rule="nonzero"/></clipPath></defs><g clip-path="url(#1a24dcb7b0)"><path fill="#ffffff" d="M 0 0 L 112.5 0 L 112.5 112.5 L 0 112.5 Z M 0 0 " fill-opacity="1" fill-rule="nonzero"/><path fill="#ffffff" d="M 0 0 L 112.5 0 L 112.5 112.5 L 0 112.5 Z M 0 0 " fill-opacity="1" fill-rule="nonzero"/></g><g clip-path="url(#91b049212d)"><path fill="#00bf63" d="M 110.867188 43.816406 L 105.789062 43.816406 C 105.238281 41.722656 104.417969 39.726562 103.316406 37.847656 L 106.917969 34.230469 C 107.226562 33.917969 107.386719 33.515625 107.386719 33.082031 C 107.386719 32.648438 107.210938 32.246094 106.917969 31.933594 L 100.640625 25.628906 C 100.007812 24.996094 98.988281 24.996094 98.355469 25.628906 L 94.753906 29.246094 C 92.898438 28.140625 90.894531 27.316406 88.8125 26.761719 L 88.8125 21.660156 C 88.8125 20.769531 88.085938 20.039062 87.199219 20.039062 L 79.914062 20.039062 C 79.027344 20.039062 78.300781 20.769531 78.300781 21.660156 L 78.300781 26.761719 C 76.230469 27.316406 74.242188 28.140625 72.359375 29.246094 L 68.757812 25.628906 C 68.125 24.996094 67.105469 24.996094 66.472656 25.628906 L 60.195312 31.933594 C 59.886719 32.246094 59.722656 32.648438 59.722656 33.082031 C 59.722656 33.515625 59.898438 33.917969 60.195312 34.230469 L 63.796875 37.847656 C 62.695312 39.726562 61.875 41.722656 61.324219 43.816406 L 56.242188 43.816406 C 55.355469 43.816406 54.628906 44.546875 54.628906 45.4375 L 54.628906 52.753906 C 54.628906 53.644531 55.355469 54.375 56.242188 54.375 L 61.324219 54.375 C 61.875 56.46875 62.695312 58.464844 63.796875 60.34375 L 60.195312 63.960938 C 59.886719 64.273438 59.722656 64.675781 59.722656 65.109375 C 59.722656 65.542969 59.898438 65.945312 60.195312 66.257812 L 66.472656 72.5625 C 66.78125 72.875 67.183594 73.035156 67.613281 73.035156 C 68.042969 73.035156 68.449219 72.859375 68.757812 72.5625 L 72.359375 68.945312 C 74.226562 70.050781 76.21875 70.875 78.300781 71.429688 L 78.300781 76.53125 C 78.300781 77.421875 79.027344 78.152344 79.914062 78.152344 L 87.199219 78.152344 C 88.085938 78.152344 88.8125 77.421875 88.8125 76.53125 L 88.8125 71.429688 C 90.894531 70.875 92.882812 70.050781 94.753906 68.945312 L 98.355469 72.5625 C 98.664062 72.875 99.066406 73.035156 99.496094 73.035156 C 99.925781 73.035156 100.332031 72.859375 100.640625 72.5625 L 106.917969 66.257812 C 107.550781 65.621094 107.550781 64.597656 106.917969 63.960938 L 103.316406 60.34375 C 104.417969 58.464844 105.238281 56.46875 105.789062 54.375 L 110.867188 54.375 C 111.757812 54.375 112.480469 53.644531 112.480469 52.753906 L 112.480469 45.4375 C 112.480469 44.546875 111.769531 43.816406 110.867188 43.816406 Z M 109.257812 51.132812 L 104.511719 51.132812 C 103.746094 51.132812 103.085938 51.675781 102.925781 52.429688 C 102.402344 55.023438 101.394531 57.453125 99.925781 59.679688 C 99.496094 60.328125 99.589844 61.179688 100.128906 61.71875 L 103.488281 65.097656 L 99.496094 69.105469 L 96.136719 65.730469 C 95.597656 65.191406 94.738281 65.097656 94.109375 65.527344 C 91.890625 67 89.457031 68.011719 86.890625 68.539062 C 86.136719 68.6875 85.597656 69.363281 85.597656 70.132812 L 85.597656 74.898438 L 81.539062 74.898438 L 81.539062 70.242188 C 81.539062 69.417969 80.949219 68.6875 80.15625 68.527344 C 77.613281 68 75.222656 66.984375 73.03125 65.527344 C 72.386719 65.097656 71.539062 65.191406 71 65.730469 L 67.640625 69.105469 L 63.648438 65.097656 L 67.011719 61.71875 C 67.546875 61.179688 67.640625 60.316406 67.210938 59.679688 C 65.746094 57.453125 64.738281 55.011719 64.214844 52.429688 C 64.066406 51.675781 63.394531 51.132812 62.628906 51.132812 L 57.882812 51.132812 L 57.882812 47.058594 L 62.628906 47.058594 C 63.394531 47.058594 64.050781 46.515625 64.214844 45.761719 C 64.738281 43.167969 65.746094 40.738281 67.210938 38.511719 C 67.640625 37.863281 67.546875 37.011719 67.011719 36.472656 L 63.648438 33.097656 L 67.628906 29.070312 L 70.988281 32.449219 C 71.527344 32.988281 72.386719 33.082031 73.019531 32.648438 C 75.207031 31.191406 77.601562 30.191406 80.140625 29.652344 C 80.949219 29.492188 81.527344 28.761719 81.527344 27.9375 L 81.527344 23.28125 L 85.585938 23.28125 L 85.585938 28.046875 C 85.585938 28.816406 86.125 29.476562 86.875 29.640625 C 89.457031 30.164062 91.875 31.179688 94.09375 32.648438 C 94.738281 33.082031 95.585938 32.988281 96.125 32.449219 L 99.484375 29.070312 L 103.476562 33.082031 L 100.117188 36.457031 C 99.578125 36.996094 99.484375 37.863281 99.914062 38.496094 C 101.378906 40.722656 102.386719 43.167969 102.910156 45.746094 C 103.058594 46.503906 103.730469 47.042969 104.496094 47.042969 L 109.242188 47.042969 L 109.242188 51.132812 Z M 109.257812 51.132812 " fill-opacity="1" fill-rule="nonzero"/></g><path fill="#00bf63" d="M 88.90625 48.921875 C 91.054688 47.285156 92.453125 44.695312 92.453125 41.777344 C 92.453125 36.847656 88.460938 32.839844 83.554688 32.839844 C 78.648438 32.839844 74.65625 36.847656 74.65625 41.777344 C 74.65625 44.695312 76.054688 47.285156 78.207031 48.921875 C 74.992188 50.785156 72.828125 54.265625 72.828125 58.25 L 72.828125 61.894531 C 72.828125 62.789062 73.554688 63.515625 74.441406 63.515625 L 92.65625 63.515625 C 93.542969 63.515625 94.269531 62.789062 94.269531 61.894531 L 94.269531 58.238281 C 94.28125 54.253906 92.117188 50.785156 88.90625 48.921875 Z M 77.898438 41.777344 C 77.898438 38.632812 80.4375 36.078125 83.570312 36.078125 C 86.703125 36.078125 89.242188 38.632812 89.242188 41.777344 C 89.242188 44.921875 86.703125 47.476562 83.570312 47.476562 C 80.4375 47.476562 77.898438 44.921875 77.898438 41.777344 Z M 91.054688 60.277344 L 76.070312 60.277344 L 76.070312 58.238281 C 76.070312 54.089844 79.429688 50.714844 83.554688 50.714844 C 87.683594 50.714844 91.042969 54.089844 91.042969 58.238281 L 91.042969 60.277344 Z M 91.054688 60.277344 " fill-opacity="1" fill-rule="nonzero"/><g clip-path="url(#8699c5ee74)"><path fill="#00bf63" d="M 56.257812 58.453125 L 51.175781 58.453125 C 50.625 56.359375 49.804688 54.363281 48.703125 52.484375 L 52.304688 48.867188 C 52.613281 48.554688 52.777344 48.152344 52.777344 47.71875 C 52.777344 47.285156 52.601562 46.882812 52.304688 46.570312 L 46.027344 40.265625 C 45.394531 39.628906 44.375 39.628906 43.742188 40.265625 L 40.140625 43.882812 C 38.273438 42.777344 36.28125 41.953125 34.199219 41.398438 L 34.199219 36.296875 C 34.199219 35.40625 33.472656 34.675781 32.585938 34.675781 L 25.300781 34.675781 C 24.414062 34.675781 23.6875 35.40625 23.6875 36.296875 L 23.6875 41.398438 C 21.605469 41.953125 19.617188 42.777344 17.746094 43.882812 L 14.144531 40.265625 C 13.511719 39.628906 12.492188 39.628906 11.859375 40.265625 L 5.582031 46.570312 C 5.273438 46.882812 5.113281 47.285156 5.113281 47.71875 C 5.113281 48.152344 5.289062 48.554688 5.582031 48.867188 L 9.183594 52.484375 C 8.082031 54.363281 7.261719 56.359375 6.710938 58.453125 L 1.632812 58.453125 C 0.742188 58.453125 0.0195312 59.183594 0.0195312 60.074219 L 0.0195312 67.390625 C 0.0195312 68.28125 0.742188 69.011719 1.632812 69.011719 L 6.710938 69.011719 C 7.261719 71.105469 8.082031 73.101562 9.183594 74.980469 L 5.582031 78.597656 C 5.273438 78.910156 5.113281 79.3125 5.113281 79.746094 C 5.113281 80.179688 5.289062 80.582031 5.582031 80.894531 L 11.859375 87.199219 C 12.492188 87.832031 13.511719 87.832031 14.144531 87.199219 L 17.746094 83.582031 C 19.617188 84.6875 21.605469 85.511719 23.6875 86.066406 L 23.6875 91.167969 C 23.6875 92.058594 24.414062 92.789062 25.300781 92.789062 L 32.585938 92.789062 C 33.472656 92.789062 34.199219 92.058594 34.199219 91.167969 L 34.199219 86.066406 C 36.28125 85.511719 38.273438 84.6875 40.140625 83.582031 L 43.742188 87.199219 C 44.375 87.832031 45.394531 87.832031 46.027344 87.199219 L 52.304688 80.894531 C 52.613281 80.582031 52.777344 80.179688 52.777344 79.746094 C 52.777344 79.3125 52.601562 78.910156 52.304688 78.597656 L 48.703125 74.980469 C 49.804688 73.101562 50.625 71.105469 51.175781 69.011719 L 56.257812 69.011719 C 57.144531 69.011719 57.871094 68.28125 57.871094 67.390625 L 57.871094 60.074219 C 57.871094 59.167969 57.144531 58.453125 56.257812 58.453125 Z M 54.644531 65.757812 L 49.886719 65.757812 C 49.121094 65.757812 48.460938 66.296875 48.300781 67.054688 C 47.773438 69.644531 46.765625 72.078125 45.300781 74.304688 C 44.871094 74.953125 44.964844 75.804688 45.503906 76.34375 L 48.863281 79.71875 L 44.871094 83.730469 L 41.511719 80.351562 C 40.972656 79.8125 40.113281 79.71875 39.480469 80.152344 C 37.265625 81.621094 34.832031 82.636719 32.265625 83.160156 C 31.511719 83.308594 30.972656 83.984375 30.972656 84.753906 L 30.972656 89.523438 L 26.914062 89.523438 L 26.914062 84.753906 C 26.914062 83.984375 26.375 83.324219 25.625 83.160156 C 23.042969 82.636719 20.625 81.621094 18.40625 80.152344 C 17.761719 79.71875 16.914062 79.8125 16.375 80.355469 L 13.015625 83.730469 L 9.023438 79.71875 L 12.382812 76.34375 C 12.921875 75.804688 13.015625 74.9375 12.585938 74.304688 C 11.121094 72.078125 10.113281 69.632812 9.589844 67.054688 C 9.441406 66.296875 8.769531 65.757812 8.003906 65.757812 L 3.242188 65.757812 L 3.242188 61.679688 L 7.988281 61.679688 C 8.753906 61.679688 9.414062 61.140625 9.574219 60.382812 C 10.097656 57.792969 11.105469 55.359375 12.574219 53.132812 C 13.003906 52.484375 12.910156 51.632812 12.371094 51.09375 L 9.011719 47.71875 L 13.003906 43.707031 L 16.363281 47.085938 C 16.902344 47.625 17.761719 47.71875 18.390625 47.285156 C 20.609375 45.816406 23.042969 44.800781 25.609375 44.277344 C 26.363281 44.128906 26.902344 43.453125 26.902344 42.683594 L 26.902344 37.914062 L 30.960938 37.914062 L 30.960938 42.683594 C 30.960938 43.453125 31.496094 44.113281 32.25 44.277344 C 34.832031 44.800781 37.25 45.816406 39.46875 47.285156 C 40.113281 47.71875 40.960938 47.625 41.5 47.085938 L 44.859375 43.707031 L 48.851562 47.71875 L 45.488281 51.09375 C 44.953125 51.632812 44.859375 52.5 45.289062 53.132812 C 46.753906 55.359375 47.761719 57.804688 48.285156 60.382812 C 48.433594 61.140625 49.105469 61.679688 49.871094 61.679688 L 54.617188 61.679688 L 54.617188 65.757812 Z M 54.644531 65.757812 " fill-opacity="1" fill-rule="nonzero"/></g><path fill="#00bf63" d="M 34.292969 63.542969 C 36.445312 61.910156 37.84375 59.316406 37.84375 56.402344 C 37.84375 51.472656 33.851562 47.460938 28.945312 47.460938 C 24.039062 47.460938 20.046875 51.484375 20.046875 56.414062 C 20.046875 59.332031 21.445312 61.921875 23.59375 63.558594 C 20.382812 65.421875 18.21875 68.902344 18.21875 72.886719 L 18.21875 76.546875 C 18.21875 77.4375 18.945312 78.167969 19.832031 78.167969 L 38.042969 78.167969 C 38.929688 78.167969 39.65625 77.4375 39.65625 76.546875 L 39.65625 72.886719 C 39.65625 68.890625 37.492188 65.40625 34.292969 63.542969 Z M 23.273438 56.414062 C 23.273438 53.269531 25.8125 50.714844 28.945312 50.714844 C 32.074219 50.714844 34.617188 53.269531 34.617188 56.414062 C 34.617188 59.558594 32.074219 62.113281 28.945312 62.113281 C 25.8125 62.097656 23.273438 59.546875 23.273438 56.414062 Z M 36.429688 74.910156 L 21.457031 74.910156 L 21.457031 72.875 C 21.457031 68.726562 24.816406 65.351562 28.945312 65.351562 C 33.070312 65.351562 36.429688 68.726562 36.429688 72.875 Z M 36.429688 74.910156 " fill-opacity="1" fill-rule="nonzero"/></svg>