<svg xmlns="http://www.w3.org/2000/svg" xmlns:xlink="http://www.w3.org/1999/xlink" width="150" zoomAndPan="magnify" viewBox="0 0 112.5 112.499997" height="150" preserveAspectRatio="xMidYMid meet" version="1.0"><defs><clipPath id="0edb0b6fbb"><path d="M 0 0 L 112.003906 0 L 112.003906 112.003906 L 0 112.003906 Z M 0 0 " clip-rule="nonzero"/></clipPath><clipPath id="6681921035"><path d="M 6 104 L 110.648438 104 L 110.648438 112.003906 L 6 112.003906 Z M 6 104 " clip-rule="nonzero"/></clipPath></defs><g clip-path="url(#0edb0b6fbb)"><path fill="#ffffff" d="M 0 0 L 112.5 0 L 112.5 112.5 L 0 112.5 Z M 0 0 " fill-opacity="1" fill-rule="nonzero"/><path fill="#ffffff" d="M 0 0 L 112.5 0 L 112.5 112.5 L 0 112.5 Z M 0 0 " fill-opacity="1" fill-rule="nonzero"/></g><path fill="#ffffff" d="M 33.050781 84.996094 L 15.921875 84.996094 L 15.921875 106.695312 L 33.050781 106.695312 L 33.050781 84.996094 " fill-opacity="1" fill-rule="nonzero"/><path fill="#00bf63" d="M 33.050781 84.996094 L 33.050781 83.808594 L 15.921875 83.808594 C 15.609375 83.808594 15.296875 83.9375 15.082031 84.15625 C 14.855469 84.375 14.726562 84.683594 14.726562 84.996094 L 14.726562 106.695312 C 14.726562 107.007812 14.855469 107.3125 15.082031 107.535156 C 15.296875 107.753906 15.609375 107.882812 15.921875 107.882812 L 33.050781 107.882812 C 33.363281 107.882812 33.671875 107.753906 33.890625 107.535156 C 34.117188 107.3125 34.238281 107.007812 34.238281 106.695312 L 34.238281 84.996094 C 34.238281 84.683594 34.117188 84.375 33.890625 84.15625 C 33.671875 83.9375 33.363281 83.808594 33.050781 83.808594 L 33.050781 84.996094 L 31.863281 84.996094 L 31.863281 105.507812 L 17.105469 105.507812 L 17.105469 86.183594 L 33.050781 86.183594 L 33.050781 84.996094 L 31.863281 84.996094 L 33.050781 84.996094 " fill-opacity="1" fill-rule="nonzero"/><path fill="#ffffff" d="M 56.359375 73.347656 L 39.226562 73.347656 L 39.226562 106.695312 L 56.359375 106.695312 L 56.359375 73.347656 " fill-opacity="1" fill-rule="nonzero"/><path fill="#00bf63" d="M 56.359375 73.347656 L 56.359375 72.160156 L 39.226562 72.160156 C 38.910156 72.160156 38.601562 72.289062 38.382812 72.507812 C 38.160156 72.730469 38.035156 73.035156 38.035156 73.347656 L 38.035156 106.695312 C 38.035156 107.007812 38.160156 107.3125 38.382812 107.535156 C 38.601562 107.753906 38.910156 107.882812 39.226562 107.882812 L 56.359375 107.882812 C 56.671875 107.882812 56.976562 107.753906 57.199219 107.535156 C 57.417969 107.3125 57.546875 107.007812 57.546875 106.695312 L 57.546875 73.347656 C 57.546875 73.035156 57.417969 72.730469 57.199219 72.507812 C 56.976562 72.289062 56.671875 72.160156 56.359375 72.160156 L 56.359375 73.347656 L 55.171875 73.347656 L 55.171875 105.507812 L 40.414062 105.507812 L 40.414062 74.535156 L 56.359375 74.535156 L 56.359375 73.347656 L 55.171875 73.347656 L 56.359375 73.347656 " fill-opacity="1" fill-rule="nonzero"/><path fill="#ffffff" d="M 101.363281 42.535156 L 84.230469 42.535156 L 84.230469 106.695312 L 101.363281 106.695312 L 101.363281 42.535156 " fill-opacity="1" fill-rule="nonzero"/><path fill="#00bf63" d="M 101.363281 42.535156 L 101.363281 41.347656 L 84.230469 41.347656 C 83.917969 41.347656 83.613281 41.476562 83.390625 41.699219 C 83.171875 41.917969 83.042969 42.226562 83.042969 42.535156 L 83.042969 106.695312 C 83.042969 107.007812 83.171875 107.3125 83.390625 107.535156 C 83.613281 107.753906 83.917969 107.882812 84.230469 107.882812 L 101.363281 107.882812 C 101.679688 107.882812 101.988281 107.753906 102.207031 107.535156 C 102.429688 107.3125 102.550781 107.007812 102.550781 106.695312 L 102.550781 42.535156 C 102.550781 42.226562 102.429688 41.917969 102.207031 41.699219 C 101.988281 41.476562 101.679688 41.347656 101.363281 41.347656 L 101.363281 42.535156 L 100.175781 42.535156 L 100.175781 105.507812 L 85.417969 105.507812 L 85.417969 43.722656 L 101.363281 43.722656 L 101.363281 42.535156 L 100.175781 42.535156 L 101.363281 42.535156 " fill-opacity="1" fill-rule="nonzero"/><path fill="#ffffff" d="M 79.09375 56.222656 L 61.957031 56.222656 L 61.957031 106.695312 L 79.09375 106.695312 L 79.09375 56.222656 " fill-opacity="1" fill-rule="nonzero"/><path fill="#00bf63" d="M 79.09375 56.222656 L 79.09375 55.035156 L 61.957031 55.035156 C 61.644531 55.035156 61.339844 55.15625 61.117188 55.378906 C 60.894531 55.605469 60.769531 55.90625 60.769531 56.222656 L 60.769531 106.695312 C 60.769531 107.007812 60.894531 107.3125 61.117188 107.535156 C 61.339844 107.753906 61.644531 107.882812 61.957031 107.882812 L 79.09375 107.882812 C 79.402344 107.882812 79.710938 107.753906 79.929688 107.535156 C 80.152344 107.3125 80.28125 107.007812 80.28125 106.695312 L 80.28125 56.222656 C 80.28125 55.90625 80.152344 55.605469 79.929688 55.378906 C 79.710938 55.15625 79.402344 55.035156 79.09375 55.035156 L 79.09375 56.222656 L 77.902344 56.222656 L 77.902344 105.507812 L 63.144531 105.507812 L 63.144531 57.410156 L 79.09375 57.410156 L 79.09375 56.222656 L 77.902344 56.222656 L 79.09375 56.222656 " fill-opacity="1" fill-rule="nonzero"/><path fill="#ffffff" d="M 9.066406 111.304688 C 8.410156 111.304688 7.878906 110.777344 7.878906 110.113281 L 7.878906 106.695312 C 7.878906 106.035156 8.410156 105.507812 9.066406 105.507812 L 108.222656 105.507812 C 108.878906 105.507812 109.410156 106.035156 109.410156 106.695312 L 109.410156 110.113281 C 109.410156 110.777344 108.878906 111.304688 108.222656 111.304688 L 9.066406 111.304688 " fill-opacity="1" fill-rule="nonzero"/><g clip-path="url(#6681921035)"><path fill="#00bf63" d="M 108.222656 104.320312 L 9.066406 104.320312 C 7.75 104.320312 6.691406 105.382812 6.691406 106.695312 L 6.691406 110.113281 C 6.691406 111.429688 7.75 112.492188 9.066406 112.492188 L 108.222656 112.492188 C 109.535156 112.492188 110.597656 111.429688 110.597656 110.113281 L 110.597656 106.695312 C 110.597656 105.382812 109.535156 104.320312 108.222656 104.320312 Z M 108.222656 106.695312 L 108.222656 110.113281 L 9.066406 110.113281 L 9.066406 106.695312 L 108.222656 106.695312 " fill-opacity="1" fill-rule="nonzero"/></g><path fill="#ffffff" d="M 56.6875 39.132812 L 54.976562 37.140625 L 53.265625 35.15625 C 53.265625 35.15625 46.953125 34.101562 44.132812 37.636719 C 41.3125 41.171875 40.84375 49.285156 40.84375 49.285156 C 40.84375 49.285156 48.949219 50.039062 52.859375 47.785156 C 56.777344 45.527344 56.6875 39.132812 56.6875 39.132812 " fill-opacity="1" fill-rule="nonzero"/><path fill="#00bf63" d="M 56.6875 39.132812 L 57.589844 38.359375 L 55.878906 36.367188 L 54.167969 34.382812 C 53.984375 34.167969 53.734375 34.027344 53.460938 33.984375 C 53.414062 33.972656 52.480469 33.820312 51.140625 33.820312 C 50.015625 33.820312 48.601562 33.925781 47.171875 34.351562 C 46.457031 34.566406 45.742188 34.863281 45.0625 35.273438 C 44.382812 35.6875 43.738281 36.21875 43.203125 36.894531 C 42.371094 37.941406 41.777344 39.21875 41.3125 40.554688 C 40.609375 42.558594 40.203125 44.699219 39.964844 46.363281 C 39.730469 48.023438 39.660156 49.195312 39.65625 49.21875 C 39.621094 49.855469 40.097656 50.410156 40.734375 50.46875 C 40.761719 50.472656 42.089844 50.597656 43.953125 50.597656 C 45.351562 50.597656 47.039062 50.523438 48.714844 50.277344 C 50.398438 50.027344 52.066406 49.609375 53.453125 48.816406 C 54.59375 48.15625 55.4375 47.21875 56.050781 46.226562 C 56.96875 44.722656 57.40625 43.085938 57.632812 41.753906 C 57.859375 40.429688 57.875 39.414062 57.875 39.164062 L 57.875 39.152344 L 57.203125 39.140625 L 57.875 39.152344 L 57.203125 39.140625 L 57.875 39.152344 C 57.878906 38.855469 57.78125 38.582031 57.589844 38.359375 L 56.6875 39.132812 L 55.5 39.109375 L 55.5 39.164062 C 55.5 39.367188 55.476562 40.898438 55.027344 42.558594 C 54.804688 43.382812 54.480469 44.238281 54.023438 44.980469 C 53.570312 45.722656 53 46.335938 52.265625 46.753906 C 51.308594 47.3125 49.878906 47.707031 48.371094 47.929688 C 46.859375 48.15625 45.265625 48.222656 43.953125 48.222656 C 43.074219 48.222656 42.320312 48.191406 41.785156 48.160156 C 41.519531 48.144531 41.3125 48.128906 41.164062 48.121094 C 41.09375 48.117188 41.039062 48.113281 41.003906 48.105469 L 40.964844 48.105469 L 40.953125 48.101562 L 40.84375 49.285156 L 42.035156 49.355469 L 42.035156 49.335938 C 42.042969 49.132812 42.179688 47.117188 42.640625 44.78125 C 42.871094 43.613281 43.183594 42.363281 43.59375 41.226562 C 43.992188 40.09375 44.5 39.074219 45.0625 38.378906 C 45.410156 37.945312 45.820312 37.59375 46.296875 37.304688 C 47.003906 36.875 47.847656 36.589844 48.699219 36.421875 C 49.554688 36.25 50.414062 36.195312 51.140625 36.195312 C 51.714844 36.195312 52.210938 36.230469 52.558594 36.261719 C 52.726562 36.28125 52.859375 36.296875 52.949219 36.304688 C 52.992188 36.316406 53.027344 36.320312 53.046875 36.320312 L 53.070312 36.324219 L 53.074219 36.324219 L 53.144531 35.867188 L 53.070312 36.324219 L 53.074219 36.324219 L 53.144531 35.867188 L 53.070312 36.324219 L 53.265625 35.15625 L 52.367188 35.925781 L 54.074219 37.917969 L 55.785156 39.90625 L 56.6875 39.132812 L 55.5 39.109375 L 56.6875 39.132812 " fill-opacity="1" fill-rule="nonzero"/><path fill="#ffffff" d="M 57.027344 43.492188 C 56.710938 43.46875 56.421875 43.324219 56.210938 43.085938 L 49.28125 35.027344 C 48.855469 34.535156 48.910156 33.785156 49.410156 33.355469 L 52.0625 31.074219 C 52.28125 30.886719 52.558594 30.785156 52.835938 30.785156 L 52.925781 30.789062 C 53.242188 30.8125 53.53125 30.960938 53.738281 31.199219 L 60.667969 39.257812 C 61.097656 39.753906 61.039062 40.503906 60.542969 40.933594 L 57.890625 43.214844 C 57.675781 43.398438 57.398438 43.5 57.113281 43.5 L 57.027344 43.492188 " fill-opacity="1" fill-rule="nonzero"/><path fill="#00bf63" d="M 52.835938 29.597656 C 52.273438 29.597656 51.71875 29.800781 51.289062 30.171875 L 48.636719 32.453125 C 47.640625 33.308594 47.527344 34.808594 48.382812 35.800781 L 55.3125 43.859375 C 55.726562 44.335938 56.308594 44.628906 56.933594 44.683594 C 56.996094 44.683594 57.054688 44.6875 57.113281 44.6875 C 57.679688 44.6875 58.230469 44.488281 58.664062 44.113281 L 61.316406 41.832031 C 62.308594 40.976562 62.421875 39.480469 61.566406 38.480469 L 54.636719 30.425781 C 54.230469 29.945312 53.644531 29.648438 53.011719 29.605469 C 52.957031 29.601562 52.894531 29.597656 52.835938 29.597656 Z M 52.835938 31.972656 L 59.765625 40.03125 L 57.113281 42.3125 L 50.183594 34.253906 L 52.835938 31.972656 " fill-opacity="1" fill-rule="nonzero"/><path fill="#ffffff" d="M 64.796875 43.632812 C 64.457031 43.632812 64.125 43.488281 63.890625 43.21875 L 50.871094 28.074219 C 50.476562 27.621094 50.484375 26.941406 50.894531 26.5 C 51.839844 25.464844 74.269531 1.195312 90.671875 1.195312 C 92.4375 1.195312 94.097656 1.476562 95.605469 2.039062 C 95.984375 2.183594 96.265625 2.511719 96.351562 2.90625 C 99.949219 20.066406 66.867188 42.480469 65.457031 43.433594 C 65.25 43.566406 65.023438 43.632812 64.796875 43.632812 " fill-opacity="1" fill-rule="nonzero"/><path fill="#00bf63" d="M 90.671875 0.0078125 C 73.75 0.0078125 50.980469 24.648438 50.015625 25.699219 C 49.199219 26.582031 49.183594 27.933594 49.964844 28.851562 L 62.992188 43.992188 C 63.460938 44.535156 64.125 44.820312 64.796875 44.820312 C 65.25 44.820312 65.710938 44.691406 66.117188 44.414062 C 66.46875 44.183594 74.851562 38.53125 82.941406 30.722656 C 94.230469 19.828125 99.136719 10.390625 97.515625 2.667969 C 97.34375 1.867188 96.78125 1.214844 96.015625 0.925781 C 94.382812 0.316406 92.582031 0.0078125 90.671875 0.0078125 Z M 90.671875 2.382812 C 92.25 2.382812 93.769531 2.625 95.183594 3.15625 C 98.660156 19.726562 64.796875 42.445312 64.796875 42.445312 L 58.285156 34.875 L 51.769531 27.296875 C 51.769531 27.296875 74.605469 2.382812 90.671875 2.382812 " fill-opacity="1" fill-rule="nonzero"/><path fill="#ffffff" d="M 92.046875 17.226562 C 91.816406 17.226562 91.585938 17.160156 91.390625 17.03125 C 89.269531 15.628906 87.171875 13.757812 85.332031 11.621094 C 83.496094 9.484375 81.960938 7.136719 80.894531 4.828125 C 80.753906 4.53125 80.746094 4.191406 80.863281 3.890625 C 80.984375 3.585938 81.222656 3.347656 81.527344 3.226562 C 84.863281 1.878906 87.941406 1.195312 90.675781 1.195312 C 92.441406 1.195312 94.101562 1.480469 95.605469 2.039062 C 95.984375 2.183594 96.265625 2.511719 96.351562 2.90625 C 97.191406 6.921875 96.089844 11.542969 93.066406 16.640625 C 92.902344 16.921875 92.628906 17.125 92.316406 17.199219 C 92.222656 17.21875 92.132812 17.226562 92.046875 17.226562 " fill-opacity="1" fill-rule="nonzero"/><path fill="#00bf63" d="M 90.675781 0.0078125 C 87.785156 0.0078125 84.558594 0.71875 81.078125 2.125 C 80.476562 2.371094 80 2.851562 79.757812 3.453125 C 79.519531 4.058594 79.539062 4.730469 79.816406 5.324219 C 80.925781 7.734375 82.523438 10.175781 84.433594 12.394531 C 86.34375 14.613281 88.523438 16.5625 90.738281 18.023438 C 91.132812 18.28125 91.585938 18.414062 92.046875 18.414062 C 92.222656 18.414062 92.40625 18.394531 92.582031 18.355469 C 93.214844 18.210938 93.757812 17.8125 94.09375 17.25 C 97.265625 11.886719 98.417969 6.980469 97.515625 2.667969 C 97.34375 1.867188 96.78125 1.214844 96.015625 0.925781 C 94.382812 0.316406 92.582031 0.0078125 90.675781 0.0078125 Z M 90.675781 2.382812 C 92.253906 2.382812 93.769531 2.625 95.183594 3.15625 C 96.039062 7.222656 94.640625 11.660156 92.046875 16.039062 C 90.070312 14.738281 88.070312 12.984375 86.234375 10.847656 C 84.402344 8.714844 82.960938 6.46875 81.96875 4.328125 C 84.972656 3.117188 87.921875 2.382812 90.675781 2.382812 " fill-opacity="1" fill-rule="nonzero"/><path fill="#ffffff" d="M 62.734375 44.714844 L 49.210938 28.996094 L 52.375 26.277344 L 65.898438 42.003906 L 62.734375 44.714844 " fill-opacity="1" fill-rule="nonzero"/><path fill="#00bf63" d="M 62.734375 44.714844 L 63.636719 43.945312 L 50.882812 29.121094 L 52.246094 27.953125 L 64.21875 41.875 L 61.957031 43.816406 L 62.734375 44.714844 L 63.636719 43.945312 L 62.734375 44.714844 L 63.507812 45.617188 L 66.667969 42.898438 C 66.910156 42.691406 67.058594 42.40625 67.082031 42.085938 C 67.105469 41.769531 67.003906 41.464844 66.796875 41.222656 L 53.273438 25.503906 C 52.847656 25.007812 52.09375 24.945312 51.597656 25.378906 L 48.4375 28.097656 C 47.9375 28.523438 47.878906 29.273438 48.3125 29.769531 L 61.835938 45.488281 C 62.261719 45.988281 63.011719 46.046875 63.507812 45.617188 L 62.734375 44.714844 " fill-opacity="1" fill-rule="nonzero"/><path fill="#ffffff" d="M 81.46875 19.253906 C 79.917969 20.585938 77.582031 20.410156 76.25 18.859375 C 74.917969 17.3125 75.09375 14.976562 76.644531 13.644531 C 78.195312 12.3125 80.527344 12.484375 81.863281 14.039062 C 83.195312 15.585938 83.019531 17.925781 81.46875 19.253906 " fill-opacity="1" fill-rule="nonzero"/><path fill="#00bf63" d="M 81.46875 19.253906 L 80.695312 18.351562 C 80.214844 18.761719 79.636719 18.960938 79.058594 18.960938 C 78.347656 18.960938 77.648438 18.667969 77.152344 18.085938 C 76.738281 17.605469 76.542969 17.03125 76.539062 16.453125 C 76.542969 15.738281 76.839844 15.046875 77.414062 14.546875 C 77.894531 14.132812 78.46875 13.9375 79.054688 13.9375 C 79.765625 13.9375 80.460938 14.234375 80.960938 14.8125 C 81.367188 15.289062 81.5625 15.863281 81.5625 16.449219 C 81.5625 17.160156 81.273438 17.855469 80.695312 18.351562 L 82.242188 20.152344 C 83.363281 19.1875 83.945312 17.816406 83.941406 16.449219 C 83.945312 15.320312 83.550781 14.179688 82.761719 13.265625 C 81.796875 12.144531 80.421875 11.5625 79.054688 11.5625 C 77.925781 11.5625 76.785156 11.953125 75.871094 12.742188 C 74.742188 13.707031 74.164062 15.078125 74.164062 16.453125 C 74.164062 17.578125 74.558594 18.71875 75.347656 19.636719 C 76.3125 20.757812 77.683594 21.335938 79.058594 21.335938 C 80.179688 21.335938 81.320312 20.945312 82.242188 20.152344 L 81.46875 19.253906 " fill-opacity="1" fill-rule="nonzero"/><path fill="#ffffff" d="M 65.308594 16.148438 L 57.453125 22.898438 C 57.453125 22.898438 52.5625 20.71875 45.359375 26.375 L 44.128906 24.945312 C 44.128906 24.945312 55.109375 8.414062 65.308594 16.148438 " fill-opacity="1" fill-rule="nonzero"/><path fill="#00bf63" d="M 65.308594 16.148438 L 64.535156 15.246094 L 56.675781 21.996094 L 57.453125 22.898438 L 57.9375 21.816406 C 57.816406 21.761719 56.726562 21.296875 54.878906 21.296875 C 53.6875 21.296875 52.179688 21.496094 50.445312 22.113281 C 48.710938 22.734375 46.75 23.773438 44.625 25.441406 L 45.359375 26.375 L 46.257812 25.601562 L 45.03125 24.171875 L 44.128906 24.945312 L 45.125 25.601562 C 45.203125 25.480469 47 22.824219 49.710938 20.25 C 51.0625 18.964844 52.640625 17.703125 54.320312 16.78125 C 55.996094 15.855469 57.761719 15.273438 59.503906 15.277344 C 61.167969 15.285156 62.835938 15.773438 64.589844 17.09375 L 65.308594 16.148438 L 64.535156 15.246094 L 65.308594 16.148438 L 66.027344 15.203125 C 63.910156 13.59375 61.664062 12.894531 59.503906 12.902344 C 57.195312 12.902344 55.023438 13.664062 53.078125 14.746094 C 50.160156 16.382812 47.707031 18.757812 45.953125 20.722656 C 44.207031 22.691406 43.160156 24.257812 43.140625 24.292969 C 42.847656 24.734375 42.882812 25.316406 43.226562 25.722656 L 44.457031 27.152344 C 44.871094 27.632812 45.59375 27.703125 46.09375 27.308594 C 48.035156 25.78125 49.765625 24.878906 51.246094 24.351562 C 52.722656 23.824219 53.949219 23.671875 54.878906 23.671875 C 55.601562 23.671875 56.15625 23.765625 56.511719 23.847656 C 56.6875 23.890625 56.816406 23.929688 56.894531 23.957031 L 56.972656 23.988281 L 56.980469 23.992188 L 57.222656 23.414062 L 56.96875 23.980469 L 56.980469 23.992188 L 57.222656 23.414062 L 56.96875 23.980469 C 57.386719 24.171875 57.878906 24.101562 58.226562 23.800781 L 66.082031 17.046875 C 66.355469 16.8125 66.507812 16.472656 66.496094 16.109375 C 66.484375 15.75 66.316406 15.417969 66.027344 15.203125 L 65.308594 16.148438 " fill-opacity="1" fill-rule="nonzero"/><path fill="#ffffff" d="M 78.3125 30.234375 L 70.457031 36.984375 C 70.457031 36.984375 71.882812 42.148438 65.207031 48.414062 L 66.433594 49.847656 C 66.433594 49.847656 84.433594 41.476562 78.3125 30.234375 " fill-opacity="1" fill-rule="nonzero"/><path fill="#00bf63" d="M 78.3125 30.234375 L 77.539062 29.335938 L 69.679688 36.085938 C 69.335938 36.386719 69.191406 36.863281 69.3125 37.304688 L 70.082031 37.089844 L 69.3125 37.292969 L 69.3125 37.304688 L 70.082031 37.089844 L 69.3125 37.292969 L 69.382812 37.273438 L 69.3125 37.289062 L 69.3125 37.292969 L 69.382812 37.273438 L 69.3125 37.289062 C 69.316406 37.308594 69.394531 37.65625 69.394531 38.261719 C 69.394531 39.074219 69.25 40.34375 68.558594 41.9375 C 67.867188 43.527344 66.628906 45.457031 64.390625 47.550781 C 63.929688 47.988281 63.890625 48.710938 64.304688 49.195312 L 65.53125 50.621094 C 65.878906 51.023438 66.453125 51.148438 66.933594 50.925781 C 66.988281 50.902344 70.335938 49.34375 73.75 46.617188 C 75.457031 45.25 77.179688 43.59375 78.511719 41.644531 C 79.832031 39.703125 80.769531 37.4375 80.769531 34.933594 C 80.773438 33.238281 80.332031 31.457031 79.359375 29.667969 C 79.1875 29.351562 78.882812 29.132812 78.527344 29.070312 C 78.175781 29.003906 77.8125 29.097656 77.539062 29.335938 L 78.3125 30.234375 L 77.273438 30.804688 C 78.070312 32.28125 78.394531 33.644531 78.394531 34.933594 C 78.394531 36.832031 77.683594 38.628906 76.542969 40.304688 C 74.84375 42.820312 72.175781 44.972656 69.9375 46.457031 C 68.816406 47.203125 67.808594 47.789062 67.082031 48.179688 C 66.71875 48.378906 66.425781 48.523438 66.230469 48.625 C 66.125 48.675781 66.050781 48.710938 66.003906 48.738281 L 65.949219 48.761719 L 65.9375 48.765625 L 65.929688 48.773438 L 66.433594 49.847656 L 67.332031 49.070312 L 66.105469 47.640625 L 65.207031 48.414062 L 66.023438 49.285156 C 68.464844 46.992188 69.914062 44.789062 70.742188 42.882812 C 71.566406 40.976562 71.773438 39.359375 71.773438 38.261719 C 71.773438 37.328125 71.625 36.757812 71.601562 36.671875 L 70.457031 36.984375 L 71.230469 37.886719 L 79.085938 31.136719 L 78.3125 30.234375 L 77.273438 30.804688 L 78.3125 30.234375 " fill-opacity="1" fill-rule="nonzero"/><path fill="#00bf63" d="M 35.9375 45.90625 L 2.414062 77.667969 C 1.96875 78.089844 1.917969 78.777344 2.300781 79.261719 C 2.675781 79.742188 3.359375 79.863281 3.871094 79.527344 L 41.488281 55.414062 C 42.039062 55.058594 42.199219 54.324219 41.84375 53.769531 C 41.492188 53.21875 40.753906 53.058594 40.203125 53.414062 L 13.183594 70.734375 L 37.570312 47.632812 C 38.050781 47.179688 38.070312 46.429688 37.617188 45.953125 C 37.167969 45.480469 36.410156 45.457031 35.9375 45.90625 " fill-opacity="1" fill-rule="nonzero"/></svg>