<svg xmlns="http://www.w3.org/2000/svg" xmlns:xlink="http://www.w3.org/1999/xlink" width="236" zoomAndPan="magnify" viewBox="0 0 177 63.749997" height="85" preserveAspectRatio="xMidYMid meet" version="1.0"><defs><g/><clipPath id="241c1b7b1b"><path d="M 21.609375 33.582031 L 148.902344 33.582031 L 148.902344 59 L 21.609375 59 Z M 21.609375 33.582031 " clip-rule="nonzero"/></clipPath><clipPath id="48b220a5d5"><path d="M 34.328125 33.582031 L 136.113281 33.582031 C 139.488281 33.582031 142.722656 34.921875 145.105469 37.304688 C 147.492188 39.691406 148.832031 42.925781 148.832031 46.300781 C 148.832031 49.671875 147.492188 52.90625 145.105469 55.292969 C 142.722656 57.679688 139.488281 59.019531 136.113281 59.019531 L 34.328125 59.019531 C 30.957031 59.019531 27.722656 57.679688 25.335938 55.292969 C 22.953125 52.90625 21.609375 49.671875 21.609375 46.300781 C 21.609375 42.925781 22.953125 39.691406 25.335938 37.304688 C 27.722656 34.921875 30.957031 33.582031 34.328125 33.582031 " clip-rule="nonzero"/></clipPath></defs><g clip-path="url(#241c1b7b1b)"><g clip-path="url(#48b220a5d5)"><path fill="#07502d" d="M 21.609375 33.582031 L 148.902344 33.582031 L 148.902344 58.945312 L 21.609375 58.945312 Z M 21.609375 33.582031 " fill-opacity="1" fill-rule="nonzero"/></g></g><g fill="#ffffff" fill-opacity="1"><g transform="translate(25.97845, 53.504946)"><g><path d="M 0.84375 -13.042969 L 2.050781 -13.042969 C 2.570312 -13.042969 2.933594 -12.886719 3.183594 -12.199219 L 7.652344 0.34375 L 8.132812 0.34375 L 12.023438 -11.640625 C 12.253906 -12.3125 12.660156 -13.042969 13.636719 -13.042969 L 14.347656 -13.042969 L 14.347656 -13.65625 L 9.167969 -13.65625 L 9.167969 -13.042969 L 10.203125 -13.042969 C 10.988281 -13.042969 11.179688 -12.445312 11.179688 -12.023438 C 11.179688 -11.699219 11.085938 -11.125 10.953125 -10.703125 L 8.417969 -2.914062 L 5.140625 -12.140625 C 5.082031 -12.273438 5.0625 -12.445312 5.0625 -12.5625 C 5.0625 -12.832031 5.351562 -13.042969 5.714844 -13.042969 L 6.980469 -13.042969 L 6.980469 -13.65625 L 0.84375 -13.65625 Z M 0.84375 -13.042969 "/></g></g></g><g fill="#ffffff" fill-opacity="1"><g transform="translate(40.783003, 53.504946)"><g><path d="M 1.1875 0 L 6.75 0 L 6.75 -0.613281 L 5.371094 -0.613281 C 5.003906 -0.613281 4.851562 -0.785156 4.851562 -1.132812 L 4.851562 -12.523438 C 4.851562 -12.886719 5.003906 -13.042969 5.371094 -13.042969 L 6.75 -13.042969 L 6.75 -13.65625 L 1.1875 -13.65625 L 1.1875 -13.042969 L 2.570312 -13.042969 C 2.933594 -13.042969 3.085938 -12.886719 3.085938 -12.523438 L 3.085938 -1.132812 C 3.085938 -0.785156 2.933594 -0.613281 2.570312 -0.613281 L 1.1875 -0.613281 Z M 1.1875 0 "/></g></g></g><g fill="#ffffff" fill-opacity="1"><g transform="translate(48.338694, 53.504946)"><g><path d="M 1.6875 -5.867188 L 1.820312 0.191406 L 2.261719 0.191406 L 2.339844 -0.574219 C 2.398438 -0.996094 2.511719 -1.398438 2.839844 -1.398438 C 2.972656 -1.398438 3.316406 -1.152344 3.796875 -0.785156 C 4.335938 -0.382812 5.503906 0.34375 6.730469 0.34375 C 9.667969 0.34375 10.894531 -1.707031 10.894531 -3.605469 C 10.894531 -4.890625 10.144531 -6.367188 8.324219 -7.097656 L 4.621094 -8.574219 C 3.605469 -8.976562 2.875 -9.511719 2.875 -10.742188 C 2.875 -12.464844 3.96875 -13.386719 5.332031 -13.386719 C 7.210938 -13.386719 9.050781 -11.46875 9.667969 -8.667969 L 10.125 -8.667969 L 9.933594 -13.65625 L 9.472656 -13.65625 L 9.398438 -12.964844 C 9.359375 -12.695312 9.261719 -12.503906 9.015625 -12.503906 C 8.785156 -12.503906 8.535156 -12.675781 8.285156 -12.851562 C 7.902344 -13.136719 6.75 -14 5.484375 -14 C 3.566406 -14 1.726562 -13.042969 1.726562 -10.394531 C 1.726562 -8.628906 2.609375 -7.308594 4.679688 -6.484375 L 7.59375 -5.3125 C 8.785156 -4.832031 9.742188 -4.257812 9.742188 -2.875 C 9.742188 -1.648438 9.035156 -0.269531 6.730469 -0.269531 C 4.546875 -0.269531 2.398438 -2.992188 2.148438 -5.867188 Z M 1.6875 -5.867188 "/></g></g></g><g fill="#ffffff" fill-opacity="1"><g transform="translate(60.228362, 53.504946)"><g><path d="M 1.1875 0 L 6.75 0 L 6.75 -0.613281 L 5.371094 -0.613281 C 5.003906 -0.613281 4.851562 -0.785156 4.851562 -1.132812 L 4.851562 -12.523438 C 4.851562 -12.886719 5.003906 -13.042969 5.371094 -13.042969 L 6.75 -13.042969 L 6.75 -13.65625 L 1.1875 -13.65625 L 1.1875 -13.042969 L 2.570312 -13.042969 C 2.933594 -13.042969 3.085938 -12.886719 3.085938 -12.523438 L 3.085938 -1.132812 C 3.085938 -0.785156 2.933594 -0.613281 2.570312 -0.613281 L 1.1875 -0.613281 Z M 1.1875 0 "/></g></g></g><g fill="#ffffff" fill-opacity="1"><g transform="translate(67.784053, 53.504946)"><g><path d="M 3.375 -6.828125 C 3.375 -10.742188 4.257812 -13.386719 6.90625 -13.386719 C 9.550781 -13.386719 10.433594 -10.742188 10.433594 -6.828125 C 10.433594 -2.914062 9.550781 -0.269531 6.90625 -0.269531 C 4.257812 -0.269531 3.375 -2.914062 3.375 -6.828125 Z M 1.34375 -6.828125 C 1.34375 -3.203125 3.566406 0.34375 6.90625 0.34375 C 10.242188 0.34375 12.464844 -3.203125 12.464844 -6.828125 C 12.464844 -10.453125 10.242188 -14 6.90625 -14 C 3.566406 -14 1.34375 -10.453125 1.34375 -6.828125 Z M 1.34375 -6.828125 "/></g></g></g><g fill="#ffffff" fill-opacity="1"><g transform="translate(81.207871, 53.504946)"><g><path d="M 1.1875 0 L 5.753906 0 L 5.753906 -0.613281 L 5.0625 -0.613281 C 4.355469 -0.613281 3.855469 -1.1875 3.855469 -2.148438 L 3.855469 -11.566406 L 3.933594 -11.566406 L 11.46875 0.34375 L 12.234375 0.34375 L 12.234375 -11.507812 C 12.234375 -12.464844 12.753906 -13.042969 13.464844 -13.042969 L 14.152344 -13.042969 L 14.152344 -13.65625 L 9.589844 -13.65625 L 9.589844 -13.042969 L 10.28125 -13.042969 C 10.988281 -13.042969 11.46875 -12.464844 11.46875 -11.507812 L 11.46875 -2.953125 L 4.8125 -13.65625 L 1.1875 -13.65625 L 1.1875 -13.042969 L 2.570312 -13.042969 C 2.933594 -13.042969 3.070312 -12.886719 3.085938 -12.523438 L 3.085938 -2.148438 C 3.085938 -1.1875 2.609375 -0.613281 1.878906 -0.613281 L 1.1875 -0.613281 Z M 1.1875 0 "/></g></g></g><g fill="#ffffff" fill-opacity="1"><g transform="translate(95.974071, 53.504946)"><g><path d="M 7.117188 -14.824219 L 7.363281 -14.613281 L 9.820312 -16.550781 C 10.125 -16.78125 10.355469 -17.050781 10.355469 -17.394531 C 10.355469 -17.742188 10.164062 -17.988281 9.820312 -17.988281 C 9.472656 -17.988281 9.226562 -17.855469 8.878906 -17.375 Z M 5.101562 -4.71875 L 7.039062 -10.53125 L 9.035156 -4.71875 Z M 0.882812 0 L 6.136719 0 L 6.136719 -0.613281 L 5.121094 -0.613281 C 4.335938 -0.613281 4.144531 -1.207031 4.144531 -1.628906 C 4.144531 -1.957031 4.277344 -2.398438 4.410156 -2.78125 L 4.851562 -4.027344 L 9.28125 -4.027344 L 10.144531 -1.515625 C 10.203125 -1.382812 10.222656 -1.207031 10.222656 -1.09375 C 10.222656 -0.84375 9.933594 -0.613281 9.550781 -0.613281 L 8.285156 -0.613281 L 8.285156 0 L 14.230469 0 L 14.230469 -0.613281 L 13.15625 -0.613281 C 12.640625 -0.613281 12.273438 -0.785156 12.007812 -1.457031 L 7.84375 -13.65625 L 7.328125 -13.65625 L 3.203125 -2.015625 C 2.972656 -1.398438 2.570312 -0.613281 1.59375 -0.613281 L 0.882812 -0.613281 Z M 0.882812 0 "/></g></g></g><g fill="#ffffff" fill-opacity="1"><g transform="translate(110.625205, 53.504946)"><g><path d="M 4.851562 -7.671875 L 4.851562 -12.523438 C 4.851562 -12.886719 5.003906 -13.042969 5.371094 -13.042969 L 7.363281 -13.042969 C 8.765625 -13.042969 9.683594 -12.179688 9.683594 -10.585938 C 9.683594 -8.917969 8.996094 -7.671875 6.710938 -7.671875 Z M 1.1875 0 L 7.078125 0 L 7.078125 -0.613281 L 5.371094 -0.613281 C 4.96875 -0.613281 4.851562 -0.785156 4.851562 -1.132812 L 4.851562 -7.058594 L 6.941406 -7.058594 C 8.34375 -7.058594 8.804688 -5.582031 8.824219 -4.066406 C 8.839844 -2.78125 8.957031 -1.476562 9.378906 -0.671875 C 9.722656 -0.0195312 10.300781 0.230469 11.125 0.230469 C 13.097656 0.230469 13.117188 -2.1875 13.117188 -3.070312 L 12.640625 -3.070312 C 12.640625 -2.261719 12.542969 -0.996094 11.8125 -0.996094 C 11.179688 -0.996094 11.066406 -1.496094 10.816406 -3.492188 C 10.472656 -6.289062 9.339844 -6.980469 8.09375 -7.210938 L 8.09375 -7.289062 C 9.933594 -7.480469 11.71875 -8.59375 11.71875 -10.585938 C 11.71875 -12.984375 9.648438 -13.65625 7.480469 -13.65625 L 1.1875 -13.65625 L 1.1875 -13.042969 L 2.570312 -13.042969 C 2.933594 -13.042969 3.085938 -12.886719 3.085938 -12.523438 L 3.085938 -1.132812 C 3.085938 -0.785156 2.933594 -0.613281 2.570312 -0.613281 L 1.1875 -0.613281 Z M 1.1875 0 "/></g></g></g><g fill="#ffffff" fill-opacity="1"><g transform="translate(124.355856, 53.504946)"><g><path d="M 1.1875 0 L 6.75 0 L 6.75 -0.613281 L 5.371094 -0.613281 C 5.003906 -0.613281 4.851562 -0.785156 4.851562 -1.132812 L 4.851562 -12.523438 C 4.851562 -12.886719 5.003906 -13.042969 5.371094 -13.042969 L 6.75 -13.042969 L 6.75 -13.65625 L 1.1875 -13.65625 L 1.1875 -13.042969 L 2.570312 -13.042969 C 2.933594 -13.042969 3.085938 -12.886719 3.085938 -12.523438 L 3.085938 -1.132812 C 3.085938 -0.785156 2.933594 -0.613281 2.570312 -0.613281 L 1.1875 -0.613281 Z M 1.1875 0 "/></g></g></g><g fill="#ffffff" fill-opacity="1"><g transform="translate(131.911547, 53.504946)"><g><path d="M 3.375 -6.828125 C 3.375 -10.742188 4.257812 -13.386719 6.90625 -13.386719 C 9.550781 -13.386719 10.433594 -10.742188 10.433594 -6.828125 C 10.433594 -2.914062 9.550781 -0.269531 6.90625 -0.269531 C 4.257812 -0.269531 3.375 -2.914062 3.375 -6.828125 Z M 1.34375 -6.828125 C 1.34375 -3.203125 3.566406 0.34375 6.90625 0.34375 C 10.242188 0.34375 12.464844 -3.203125 12.464844 -6.828125 C 12.464844 -10.453125 10.242188 -14 6.90625 -14 C 3.566406 -14 1.34375 -10.453125 1.34375 -6.828125 Z M 1.34375 -6.828125 "/></g></g></g><g fill="#ffffff" fill-opacity="1"><g transform="translate(12.32038, 27.734261)"><g><path d="M 0.996094 0 L 10.4375 0 L 10.4375 -1.097656 C 8.609375 -1.296875 7.8125 -1.828125 7.8125 -3.09375 L 7.8125 -5.683594 C 7.8125 -6.914062 8.277344 -7.445312 9.640625 -7.445312 L 10.972656 -7.445312 C 17.023438 -7.445312 20.148438 -10.105469 20.148438 -14.164062 C 20.148438 -18.21875 17.023438 -20.644531 10.972656 -20.644531 L 0.996094 -20.644531 L 0.996094 -19.546875 C 2.492188 -19.347656 3.292969 -18.816406 3.292969 -17.554688 L 3.292969 -3.09375 C 3.292969 -1.828125 2.492188 -1.296875 0.996094 -1.097656 Z M 9.640625 -9.109375 C 8.277344 -9.109375 7.8125 -9.640625 7.8125 -10.871094 L 7.8125 -17.421875 C 7.8125 -18.453125 8.277344 -18.984375 9.277344 -18.984375 L 10.972656 -18.984375 C 14.496094 -18.984375 15.660156 -16.957031 15.660156 -14.097656 C 15.660156 -11.238281 14.496094 -9.109375 10.972656 -9.109375 Z M 9.640625 -9.109375 "/></g></g></g><g fill="#ffffff" fill-opacity="1"><g transform="translate(33.297181, 27.734261)"><g><path d="M 0.996094 0 L 10.4375 0 L 10.4375 -1.097656 C 8.609375 -1.296875 7.8125 -1.828125 7.8125 -3.09375 L 7.8125 -7.214844 C 7.8125 -8.445312 8.277344 -8.976562 9.773438 -8.976562 C 11.703125 -8.976562 12.601562 -8.113281 13.53125 -5.652344 C 14.960938 -1.695312 16.15625 0 20.046875 0 L 21.84375 0 L 21.84375 -1.097656 C 20.28125 -1.097656 19.683594 -3.09375 18.882812 -5.285156 C 17.984375 -7.847656 16.921875 -8.976562 14.894531 -9.507812 C 14.660156 -9.574219 14.660156 -9.875 14.894531 -9.90625 C 18.351562 -10.4375 19.949219 -12.433594 19.949219 -15.027344 C 19.949219 -18.652344 16.789062 -20.644531 11.835938 -20.644531 L 0.996094 -20.644531 L 0.996094 -19.546875 C 2.492188 -19.347656 3.292969 -18.816406 3.292969 -17.554688 L 3.292969 -3.09375 C 3.292969 -1.828125 2.492188 -1.296875 0.996094 -1.097656 Z M 9.640625 -10.640625 C 8.277344 -10.640625 7.8125 -11.171875 7.8125 -12.402344 L 7.8125 -17.421875 C 7.8125 -18.453125 8.277344 -18.984375 9.277344 -18.984375 L 11.503906 -18.984375 C 14.328125 -18.984375 15.328125 -17.089844 15.328125 -14.992188 C 15.328125 -12.898438 14.328125 -10.640625 11.105469 -10.640625 Z M 9.640625 -10.640625 "/></g></g></g><g fill="#ffffff" fill-opacity="1"><g transform="translate(55.803193, 27.734261)"><g><path d="M 11.667969 0.332031 C 17.6875 0.332031 22.839844 -3.921875 22.839844 -10.671875 C 22.839844 -17.1875 17.753906 -21.179688 12.167969 -21.179688 C 6.152344 -21.179688 0.996094 -16.921875 0.996094 -10.238281 C 0.996094 -3.65625 6.085938 0.332031 11.667969 0.332031 Z M 12.699219 -1.230469 C 8.976562 -1.230469 5.984375 -5.71875 5.984375 -11.933594 C 5.984375 -17.554688 8.609375 -19.617188 11.136719 -19.617188 C 14.859375 -19.617188 17.851562 -15.128906 17.851562 -8.976562 C 17.851562 -3.292969 15.226562 -1.230469 12.699219 -1.230469 Z M 12.699219 -1.230469 "/></g></g></g><g fill="#ffffff" fill-opacity="1"><g transform="translate(79.638956, 27.734261)"><g><path d="M 4.488281 0.332031 C 7.378906 0.332031 10.773438 -0.929688 10.773438 -5.085938 L 10.773438 -17.554688 C 10.773438 -18.816406 11.570312 -19.347656 13.066406 -19.546875 L 13.066406 -20.644531 L 3.625 -20.644531 L 3.625 -19.546875 C 5.453125 -19.347656 6.25 -18.816406 6.25 -17.554688 L 6.25 -3.09375 C 6.25 -1.53125 5.75 -0.863281 4.988281 -0.863281 C 4.023438 -0.863281 3.492188 -1.761719 3.492188 -3.191406 C 3.492188 -4.289062 3.09375 -5.453125 1.5625 -5.453125 C 0.332031 -5.453125 -0.664062 -4.65625 -0.664062 -3.125 C -0.664062 -0.929688 1.5625 0.332031 4.488281 0.332031 Z M 4.488281 0.332031 "/></g></g></g><g fill="#ffffff" fill-opacity="1"><g transform="translate(93.701059, 27.734261)"><g><path d="M 0.996094 0 L 17.621094 0 C 17.917969 0 18.121094 -0.167969 18.152344 -0.464844 C 18.351562 -2.195312 18.652344 -3.425781 19.148438 -4.386719 L 18.386719 -4.386719 L 17.585938 -3.191406 C 16.921875 -2.195312 16.058594 -1.53125 13.832031 -1.496094 L 10.140625 -1.460938 C 8.445312 -1.460938 7.8125 -1.996094 7.8125 -3.226562 L 7.8125 -7.945312 C 7.8125 -9.210938 8.476562 -9.707031 9.90625 -9.707031 L 12.070312 -9.707031 C 14.496094 -9.707031 14.960938 -8.941406 15.226562 -7.347656 L 15.859375 -7.347656 L 15.859375 -13.566406 L 15.226562 -13.566406 C 14.960938 -11.902344 14.496094 -11.203125 12.070312 -11.203125 L 9.90625 -11.203125 C 8.476562 -11.203125 7.8125 -11.703125 7.8125 -12.964844 L 7.8125 -17.386719 C 7.8125 -18.652344 8.476562 -19.148438 9.90625 -19.148438 L 13.332031 -19.148438 C 15.425781 -19.148438 16.523438 -18.1875 17.519531 -16.191406 L 18.285156 -16.191406 C 17.785156 -18.351562 17.6875 -19.347656 17.585938 -20.28125 C 17.554688 -20.546875 17.421875 -20.644531 17.121094 -20.644531 L 0.996094 -20.644531 L 0.996094 -19.546875 C 2.492188 -19.347656 3.292969 -18.816406 3.292969 -17.554688 L 3.292969 -3.09375 C 3.292969 -1.828125 2.492188 -1.296875 0.996094 -1.097656 Z M 0.996094 0 "/></g></g></g><g fill="#ffffff" fill-opacity="1"><g transform="translate(113.514327, 27.734261)"><g><path d="M 5.453125 0 L 15.890625 0 L 15.890625 -1.097656 C 13.730469 -1.296875 12.933594 -1.828125 12.933594 -3.09375 L 12.933594 -17.1875 C 12.933594 -18.851562 13.265625 -19.148438 15.359375 -19.148438 C 17.6875 -19.148438 18.417969 -18.285156 19.382812 -15.625 L 20.511719 -15.625 L 19.847656 -20.746094 L 17.953125 -20.644531 L 3.390625 -20.644531 L 1.496094 -20.746094 L 0.832031 -15.625 L 1.960938 -15.625 C 2.925781 -18.285156 3.65625 -19.148438 5.984375 -19.148438 C 8.078125 -19.148438 8.410156 -18.851562 8.410156 -17.1875 L 8.410156 -3.09375 C 8.410156 -1.828125 7.613281 -1.296875 5.453125 -1.097656 Z M 5.453125 0 "/></g></g></g><g fill="#ffffff" fill-opacity="1"><g transform="translate(134.856809, 27.734261)"><g><path d="M 11.667969 0.332031 C 17.6875 0.332031 22.839844 -3.921875 22.839844 -10.671875 C 22.839844 -17.1875 17.753906 -21.179688 12.167969 -21.179688 C 6.152344 -21.179688 0.996094 -16.921875 0.996094 -10.238281 C 0.996094 -3.65625 6.085938 0.332031 11.667969 0.332031 Z M 12.699219 -1.230469 C 8.976562 -1.230469 5.984375 -5.71875 5.984375 -11.933594 C 5.984375 -17.554688 8.609375 -19.617188 11.136719 -19.617188 C 14.859375 -19.617188 17.851562 -15.128906 17.851562 -8.976562 C 17.851562 -3.292969 15.226562 -1.230469 12.699219 -1.230469 Z M 12.699219 -1.230469 "/></g></g></g><g fill="#ffffff" fill-opacity="1"><g transform="translate(158.692342, 27.734261)"><g/></g></g><path stroke-linecap="butt" transform="matrix(0.000000000000000891, 0.760861, -0.74707, 0.000000000000000875, 54.880649, 37.507492)" fill="none" stroke-linejoin="miter" d="M 0.00042069 0.499066 L 24.556283 0.499066 " stroke="#ffffff" stroke-width="1" stroke-opacity="1" stroke-miterlimit="4"/></svg>